{
	"asset":{
		"generator":"Khronos glTF Blender I/O v4.2.70",
		"version":"2.0"
	},
	"scene":0,
	"scenes":[
		{
			"name":"Scene",
			"nodes":[
				0,
				1,
				2,
				3,
				4,
				5,
				6,
				7,
				8,
				9,
				10,
				11,
				12,
				13,
				14
			]
		}
	],
	"nodes":[
		{
			"mesh":0,
			"name":"Text",
			"rotation":[
				0.7071068286895752,
				0,
				0,
				0.7071068286895752
			],
			"scale":[
				0.5551247596740723,
				0.5551247596740723,
				0.5551247596740723
			],
			"translation":[
				2.536388635635376,
				1.7631757259368896,
				-0.0010575097985565662
			]
		},
		{
			"mesh":1,
			"name":"Cube",
			"rotation":[
				0.30475935339927673,
				-0.371404767036438,
				-0.13051290810108185,
				0.8672638535499573
			],
			"scale":[
				0.04680211469531059,
				0.04680211469531059,
				0.04680211469531059
			],
			"translation":[
				3.5206527709960938,
				1.8201826810836792,
				0.006330652628093958
			]
		},
		{
			"mesh":2,
			"name":"Cube.001",
			"rotation":[
				0.30475935339927673,
				-0.371404767036438,
				-0.13051290810108185,
				0.8672638535499573
			],
			"scale":[
				0.02903234027326107,
				0.02903234213590622,
				0.02903234027326107
			],
			"translation":[
				3.4044976234436035,
				1.890135645866394,
				-0.0010575097985565662
			]
		},
		{
			"mesh":3,
			"name":"Circle",
			"rotation":[
				0.7037621140480042,
				0.06283499300479889,
				0.06555947661399841,
				0.7046082019805908
			],
			"scale":[
				0.48926007747650146,
				0.4892600178718567,
				0.4892600476741791
			],
			"translation":[
				-3.1909563541412354,
				1.4850767850875854,
				-5.773862358182669e-05
			]
		},
		{
			"mesh":4,
			"name":"Circle.001",
			"rotation":[
				0.696420431137085,
				0.11953771114349365,
				0.11345750838518143,
				0.6984531283378601
			],
			"scale":[
				0.25970834493637085,
				0.25970834493637085,
				0.25970837473869324
			],
			"translation":[
				-3.333223342895508,
				1.0567007064819336,
				-0.011430195532739162
			]
		},
		{
			"mesh":5,
			"name":"Circle.002",
			"rotation":[
				0.7010216116905212,
				0.08796175569295883,
				0.08239991217851639,
				0.7028810977935791
			],
			"scale":[
				0.25970834493637085,
				0.25970834493637085,
				0.25970837473869324
			],
			"translation":[
				-3.1744813919067383,
				1.8783888816833496,
				-0.0193730928003788
			]
		},
		{
			"mesh":6,
			"name":"Circle.003",
			"rotation":[
				0.7057982087135315,
				0.03194291889667511,
				0.03521885722875595,
				0.7068154811859131
			],
			"scale":[
				0.36337798833847046,
				0.3633778989315033,
				0.36337795853614807
			],
			"translation":[
				-2.4916763305664062,
				1.1587625741958618,
				0.0030968314968049526
			]
		},
		{
			"mesh":7,
			"name":"Circle.004",
			"rotation":[
				0.7037621140480042,
				0.06283500045537949,
				0.06555946916341782,
				0.7046082019805908
			],
			"scale":[
				0.2404259294271469,
				0.24042588472366333,
				0.24042588472366333
			],
			"translation":[
				-3.0138051509857178,
				1.1774086952209473,
				0.0029164250008761883
			]
		},
		{
			"mesh":8,
			"name":"Circle.005",
			"rotation":[
				0.7049468755722046,
				0.04598735645413399,
				0.04112718254327774,
				0.7065718173980713
			],
			"scale":[
				0.25970834493637085,
				0.25970834493637085,
				0.25970834493637085
			],
			"translation":[
				-2.6889145374298096,
				1.4675456285476685,
				-0.015401474200189114
			]
		},
		{
			"mesh":9,
			"name":"Circle.006",
			"rotation":[
				0.6115269064903259,
				0.3572557866573334,
				0.35432878136634827,
				0.6106178760528564
			],
			"scale":[
				0.49134737253189087,
				0.49134722352027893,
				0.4913472533226013
			],
			"translation":[
				2.5508408546447754,
				-1.1119492053985596,
				0.025081582367420197
			]
		},
		{
			"mesh":10,
			"name":"Circle.007",
			"rotation":[
				0.5639024972915649,
				0.429559588432312,
				0.4188940227031708,
				0.5674683451652527
			],
			"scale":[
				0.2608162760734558,
				0.2608163356781006,
				0.2608163058757782
			],
			"translation":[
				2.7477545738220215,
				-1.4482247829437256,
				0.012752744369208813
			]
		},
		{
			"mesh":11,
			"name":"Circle.008",
			"rotation":[
				0.6907034516334534,
				-0.14964650571346283,
				-0.15104857087135315,
				0.6911723017692566
			],
			"scale":[
				0.2608163356781006,
				0.2608162760734558,
				0.2608163058757782
			],
			"translation":[
				3.188504934310913,
				-1.8326895236968994,
				0.016469353809952736
			]
		},
		{
			"mesh":12,
			"name":"Circle.009",
			"rotation":[
				0.7057981491088867,
				0.03194291517138481,
				0.03521885722875595,
				0.7068155407905579
			],
			"scale":[
				0.4735361933708191,
				0.4735361933708191,
				0.4735361635684967
			],
			"translation":[
				3.2811949253082275,
				-1.4771076440811157,
				0.028611652553081512
			]
		},
		{
			"mesh":13,
			"name":"Circle.010",
			"rotation":[
				0.7037621140480042,
				0.06283499300479889,
				0.06555947661399841,
				0.7046082019805908
			],
			"scale":[
				0.2561682164669037,
				0.2561681866645813,
				0.25616827607154846
			],
			"translation":[
				3.3373756408691406,
				-1.0276809930801392,
				0.02426723577082157
			]
		},
		{
			"mesh":14,
			"name":"Circle.011",
			"rotation":[
				0.6939399242401123,
				-0.13350914418697357,
				-0.1352083534002304,
				0.6945080161094666
			],
			"scale":[
				0.2608163356781006,
				0.2608162760734558,
				0.2608163356781006
			],
			"translation":[
				3.038461685180664,
				-1.1387768983840942,
				0.009761519730091095
			]
		}
	],
	"meshes":[
		{
			"name":"Text",
			"primitives":[
				{
					"attributes":{
						"POSITION":0,
						"NORMAL":1,
						"TEXCOORD_0":2
					},
					"indices":3
				}
			]
		},
		{
			"name":"Cube.001",
			"primitives":[
				{
					"attributes":{
						"POSITION":4,
						"NORMAL":5,
						"TEXCOORD_0":6
					},
					"indices":7
				}
			]
		},
		{
			"name":"Cube.002",
			"primitives":[
				{
					"attributes":{
						"POSITION":8,
						"NORMAL":9,
						"TEXCOORD_0":10
					},
					"indices":7
				}
			]
		},
		{
			"name":"Circle",
			"primitives":[
				{
					"attributes":{
						"POSITION":11,
						"NORMAL":12,
						"TEXCOORD_0":13
					},
					"indices":14
				}
			]
		},
		{
			"name":"Circle.001",
			"primitives":[
				{
					"attributes":{
						"POSITION":15,
						"NORMAL":16,
						"TEXCOORD_0":17
					},
					"indices":18
				}
			]
		},
		{
			"name":"Circle.002",
			"primitives":[
				{
					"attributes":{
						"POSITION":19,
						"NORMAL":20,
						"TEXCOORD_0":21
					},
					"indices":18
				}
			]
		},
		{
			"name":"Circle.003",
			"primitives":[
				{
					"attributes":{
						"POSITION":22,
						"NORMAL":23,
						"TEXCOORD_0":24
					},
					"indices":14
				}
			]
		},
		{
			"name":"Circle.004",
			"primitives":[
				{
					"attributes":{
						"POSITION":25,
						"NORMAL":26,
						"TEXCOORD_0":27
					},
					"indices":14
				}
			]
		},
		{
			"name":"Circle.005",
			"primitives":[
				{
					"attributes":{
						"POSITION":28,
						"NORMAL":29,
						"TEXCOORD_0":30
					},
					"indices":18
				}
			]
		},
		{
			"name":"Circle.006",
			"primitives":[
				{
					"attributes":{
						"POSITION":31,
						"NORMAL":32,
						"TEXCOORD_0":33
					},
					"indices":14
				}
			]
		},
		{
			"name":"Circle.007",
			"primitives":[
				{
					"attributes":{
						"POSITION":34,
						"NORMAL":35,
						"TEXCOORD_0":36
					},
					"indices":18
				}
			]
		},
		{
			"name":"Circle.008",
			"primitives":[
				{
					"attributes":{
						"POSITION":37,
						"NORMAL":38,
						"TEXCOORD_0":39
					},
					"indices":18
				}
			]
		},
		{
			"name":"Circle.009",
			"primitives":[
				{
					"attributes":{
						"POSITION":40,
						"NORMAL":41,
						"TEXCOORD_0":42
					},
					"indices":14
				}
			]
		},
		{
			"name":"Circle.010",
			"primitives":[
				{
					"attributes":{
						"POSITION":43,
						"NORMAL":44,
						"TEXCOORD_0":45
					},
					"indices":14
				}
			]
		},
		{
			"name":"Circle.011",
			"primitives":[
				{
					"attributes":{
						"POSITION":46,
						"NORMAL":47,
						"TEXCOORD_0":48
					},
					"indices":18
				}
			]
		}
	],
	"accessors":[
		{
			"bufferView":0,
			"componentType":5126,
			"count":5890,
			"max":[
				1.6369438171386719,
				0.05999999865889549,
				0.26457396149635315
			],
			"min":[
				-1.6148673295974731,
				-0.05999999865889549,
				-0.25870996713638306
			],
			"type":"VEC3"
		},
		{
			"bufferView":1,
			"componentType":5126,
			"count":5890,
			"type":"VEC3"
		},
		{
			"bufferView":2,
			"componentType":5126,
			"count":5890,
			"type":"VEC2"
		},
		{
			"bufferView":3,
			"componentType":5123,
			"count":17436,
			"type":"SCALAR"
		},
		{
			"bufferView":4,
			"componentType":5126,
			"count":24,
			"max":[
				1,
				1,
				1
			],
			"min":[
				-1,
				-1,
				-1
			],
			"type":"VEC3"
		},
		{
			"bufferView":5,
			"componentType":5126,
			"count":24,
			"type":"VEC3"
		},
		{
			"bufferView":6,
			"componentType":5126,
			"count":24,
			"type":"VEC2"
		},
		{
			"bufferView":7,
			"componentType":5123,
			"count":36,
			"type":"SCALAR"
		},
		{
			"bufferView":8,
			"componentType":5126,
			"count":24,
			"max":[
				1,
				1,
				1
			],
			"min":[
				-1,
				-1,
				-1
			],
			"type":"VEC3"
		},
		{
			"bufferView":9,
			"componentType":5126,
			"count":24,
			"type":"VEC3"
		},
		{
			"bufferView":10,
			"componentType":5126,
			"count":24,
			"type":"VEC2"
		},
		{
			"bufferView":11,
			"componentType":5126,
			"count":60,
			"max":[
				0.4755282700061798,
				0.1694122552871704,
				0.5
			],
			"min":[
				-0.4755282700061798,
				0,
				-0.404508501291275
			],
			"type":"VEC3"
		},
		{
			"bufferView":12,
			"componentType":5126,
			"count":60,
			"type":"VEC3"
		},
		{
			"bufferView":13,
			"componentType":5126,
			"count":60,
			"type":"VEC2"
		},
		{
			"bufferView":14,
			"componentType":5123,
			"count":108,
			"type":"SCALAR"
		},
		{
			"bufferView":15,
			"componentType":5126,
			"count":120,
			"max":[
				0.4755282700061798,
				0.18219786882400513,
				0.5
			],
			"min":[
				-0.4755282700061798,
				0,
				-0.404508501291275
			],
			"type":"VEC3"
		},
		{
			"bufferView":16,
			"componentType":5126,
			"count":120,
			"type":"VEC3"
		},
		{
			"bufferView":17,
			"componentType":5126,
			"count":120,
			"type":"VEC2"
		},
		{
			"bufferView":18,
			"componentType":5123,
			"count":240,
			"type":"SCALAR"
		},
		{
			"bufferView":19,
			"componentType":5126,
			"count":120,
			"max":[
				0.4755282700061798,
				0.18219786882400513,
				0.5
			],
			"min":[
				-0.4755282700061798,
				0,
				-0.404508501291275
			],
			"type":"VEC3"
		},
		{
			"bufferView":20,
			"componentType":5126,
			"count":120,
			"type":"VEC3"
		},
		{
			"bufferView":21,
			"componentType":5126,
			"count":120,
			"type":"VEC2"
		},
		{
			"bufferView":22,
			"componentType":5126,
			"count":60,
			"max":[
				0.4755282700061798,
				0.1694122552871704,
				0.5
			],
			"min":[
				-0.4755282700061798,
				0,
				-0.404508501291275
			],
			"type":"VEC3"
		},
		{
			"bufferView":23,
			"componentType":5126,
			"count":60,
			"type":"VEC3"
		},
		{
			"bufferView":24,
			"componentType":5126,
			"count":60,
			"type":"VEC2"
		},
		{
			"bufferView":25,
			"componentType":5126,
			"count":60,
			"max":[
				0.4755282700061798,
				0.1694122552871704,
				0.5
			],
			"min":[
				-0.4755282700061798,
				0,
				-0.404508501291275
			],
			"type":"VEC3"
		},
		{
			"bufferView":26,
			"componentType":5126,
			"count":60,
			"type":"VEC3"
		},
		{
			"bufferView":27,
			"componentType":5126,
			"count":60,
			"type":"VEC2"
		},
		{
			"bufferView":28,
			"componentType":5126,
			"count":120,
			"max":[
				0.4755282700061798,
				0.18219786882400513,
				0.5
			],
			"min":[
				-0.4755282700061798,
				0,
				-0.404508501291275
			],
			"type":"VEC3"
		},
		{
			"bufferView":29,
			"componentType":5126,
			"count":120,
			"type":"VEC3"
		},
		{
			"bufferView":30,
			"componentType":5126,
			"count":120,
			"type":"VEC2"
		},
		{
			"bufferView":31,
			"componentType":5126,
			"count":60,
			"max":[
				0.4755282700061798,
				0.1694122552871704,
				0.5
			],
			"min":[
				-0.4755282700061798,
				0,
				-0.404508501291275
			],
			"type":"VEC3"
		},
		{
			"bufferView":32,
			"componentType":5126,
			"count":60,
			"type":"VEC3"
		},
		{
			"bufferView":33,
			"componentType":5126,
			"count":60,
			"type":"VEC2"
		},
		{
			"bufferView":34,
			"componentType":5126,
			"count":120,
			"max":[
				0.4755282700061798,
				0.18219786882400513,
				0.5
			],
			"min":[
				-0.4755282700061798,
				0,
				-0.404508501291275
			],
			"type":"VEC3"
		},
		{
			"bufferView":35,
			"componentType":5126,
			"count":120,
			"type":"VEC3"
		},
		{
			"bufferView":36,
			"componentType":5126,
			"count":120,
			"type":"VEC2"
		},
		{
			"bufferView":37,
			"componentType":5126,
			"count":120,
			"max":[
				0.4755282700061798,
				0.18219786882400513,
				0.5
			],
			"min":[
				-0.4755282700061798,
				0,
				-0.404508501291275
			],
			"type":"VEC3"
		},
		{
			"bufferView":38,
			"componentType":5126,
			"count":120,
			"type":"VEC3"
		},
		{
			"bufferView":39,
			"componentType":5126,
			"count":120,
			"type":"VEC2"
		},
		{
			"bufferView":40,
			"componentType":5126,
			"count":60,
			"max":[
				0.4755282700061798,
				0.1694122552871704,
				0.5
			],
			"min":[
				-0.4755282700061798,
				0,
				-0.404508501291275
			],
			"type":"VEC3"
		},
		{
			"bufferView":41,
			"componentType":5126,
			"count":60,
			"type":"VEC3"
		},
		{
			"bufferView":42,
			"componentType":5126,
			"count":60,
			"type":"VEC2"
		},
		{
			"bufferView":43,
			"componentType":5126,
			"count":60,
			"max":[
				0.4755282700061798,
				0.1694122552871704,
				0.5
			],
			"min":[
				-0.4755282700061798,
				0,
				-0.404508501291275
			],
			"type":"VEC3"
		},
		{
			"bufferView":44,
			"componentType":5126,
			"count":60,
			"type":"VEC3"
		},
		{
			"bufferView":45,
			"componentType":5126,
			"count":60,
			"type":"VEC2"
		},
		{
			"bufferView":46,
			"componentType":5126,
			"count":120,
			"max":[
				0.4755282700061798,
				0.18219786882400513,
				0.5
			],
			"min":[
				-0.4755282700061798,
				0,
				-0.404508501291275
			],
			"type":"VEC3"
		},
		{
			"bufferView":47,
			"componentType":5126,
			"count":120,
			"type":"VEC3"
		},
		{
			"bufferView":48,
			"componentType":5126,
			"count":120,
			"type":"VEC2"
		}
	],
	"bufferViews":[
		{
			"buffer":0,
			"byteLength":70680,
			"byteOffset":0,
			"target":34962
		},
		{
			"buffer":0,
			"byteLength":70680,
			"byteOffset":70680,
			"target":34962
		},
		{
			"buffer":0,
			"byteLength":47120,
			"byteOffset":141360,
			"target":34962
		},
		{
			"buffer":0,
			"byteLength":34872,
			"byteOffset":188480,
			"target":34963
		},
		{
			"buffer":0,
			"byteLength":288,
			"byteOffset":223352,
			"target":34962
		},
		{
			"buffer":0,
			"byteLength":288,
			"byteOffset":223640,
			"target":34962
		},
		{
			"buffer":0,
			"byteLength":192,
			"byteOffset":223928,
			"target":34962
		},
		{
			"buffer":0,
			"byteLength":72,
			"byteOffset":224120,
			"target":34963
		},
		{
			"buffer":0,
			"byteLength":288,
			"byteOffset":224192,
			"target":34962
		},
		{
			"buffer":0,
			"byteLength":288,
			"byteOffset":224480,
			"target":34962
		},
		{
			"buffer":0,
			"byteLength":192,
			"byteOffset":224768,
			"target":34962
		},
		{
			"buffer":0,
			"byteLength":720,
			"byteOffset":224960,
			"target":34962
		},
		{
			"buffer":0,
			"byteLength":720,
			"byteOffset":225680,
			"target":34962
		},
		{
			"buffer":0,
			"byteLength":480,
			"byteOffset":226400,
			"target":34962
		},
		{
			"buffer":0,
			"byteLength":216,
			"byteOffset":226880,
			"target":34963
		},
		{
			"buffer":0,
			"byteLength":1440,
			"byteOffset":227096,
			"target":34962
		},
		{
			"buffer":0,
			"byteLength":1440,
			"byteOffset":228536,
			"target":34962
		},
		{
			"buffer":0,
			"byteLength":960,
			"byteOffset":229976,
			"target":34962
		},
		{
			"buffer":0,
			"byteLength":480,
			"byteOffset":230936,
			"target":34963
		},
		{
			"buffer":0,
			"byteLength":1440,
			"byteOffset":231416,
			"target":34962
		},
		{
			"buffer":0,
			"byteLength":1440,
			"byteOffset":232856,
			"target":34962
		},
		{
			"buffer":0,
			"byteLength":960,
			"byteOffset":234296,
			"target":34962
		},
		{
			"buffer":0,
			"byteLength":720,
			"byteOffset":235256,
			"target":34962
		},
		{
			"buffer":0,
			"byteLength":720,
			"byteOffset":235976,
			"target":34962
		},
		{
			"buffer":0,
			"byteLength":480,
			"byteOffset":236696,
			"target":34962
		},
		{
			"buffer":0,
			"byteLength":720,
			"byteOffset":237176,
			"target":34962
		},
		{
			"buffer":0,
			"byteLength":720,
			"byteOffset":237896,
			"target":34962
		},
		{
			"buffer":0,
			"byteLength":480,
			"byteOffset":238616,
			"target":34962
		},
		{
			"buffer":0,
			"byteLength":1440,
			"byteOffset":239096,
			"target":34962
		},
		{
			"buffer":0,
			"byteLength":1440,
			"byteOffset":240536,
			"target":34962
		},
		{
			"buffer":0,
			"byteLength":960,
			"byteOffset":241976,
			"target":34962
		},
		{
			"buffer":0,
			"byteLength":720,
			"byteOffset":242936,
			"target":34962
		},
		{
			"buffer":0,
			"byteLength":720,
			"byteOffset":243656,
			"target":34962
		},
		{
			"buffer":0,
			"byteLength":480,
			"byteOffset":244376,
			"target":34962
		},
		{
			"buffer":0,
			"byteLength":1440,
			"byteOffset":244856,
			"target":34962
		},
		{
			"buffer":0,
			"byteLength":1440,
			"byteOffset":246296,
			"target":34962
		},
		{
			"buffer":0,
			"byteLength":960,
			"byteOffset":247736,
			"target":34962
		},
		{
			"buffer":0,
			"byteLength":1440,
			"byteOffset":248696,
			"target":34962
		},
		{
			"buffer":0,
			"byteLength":1440,
			"byteOffset":250136,
			"target":34962
		},
		{
			"buffer":0,
			"byteLength":960,
			"byteOffset":251576,
			"target":34962
		},
		{
			"buffer":0,
			"byteLength":720,
			"byteOffset":252536,
			"target":34962
		},
		{
			"buffer":0,
			"byteLength":720,
			"byteOffset":253256,
			"target":34962
		},
		{
			"buffer":0,
			"byteLength":480,
			"byteOffset":253976,
			"target":34962
		},
		{
			"buffer":0,
			"byteLength":720,
			"byteOffset":254456,
			"target":34962
		},
		{
			"buffer":0,
			"byteLength":720,
			"byteOffset":255176,
			"target":34962
		},
		{
			"buffer":0,
			"byteLength":480,
			"byteOffset":255896,
			"target":34962
		},
		{
			"buffer":0,
			"byteLength":1440,
			"byteOffset":256376,
			"target":34962
		},
		{
			"buffer":0,
			"byteLength":1440,
			"byteOffset":257816,
			"target":34962
		},
		{
			"buffer":0,
			"byteLength":960,
			"byteOffset":259256,
			"target":34962
		}
	],
	"buffers":[
		{
			"byteLength":260216,
			"uri":"FleetCard3.bin"
		}
	]
}
