{
	"asset":{
		"generator":"Khronos glTF Blender I/O v4.2.70",
		"version":"2.0"
	},
	"scene":0,
	"scenes":[
		{
			"name":"Scene",
			"nodes":[
				0,
				1,
				2,
				3,
				4,
				5
			]
		}
	],
	"nodes":[
		{
			"mesh":0,
			"name":"Cone",
			"rotation":[
				0.5160882472991943,
				0.1043444573879242,
				-0.5083925127983093,
				0.6813972592353821
			],
			"scale":[
				0.40537893772125244,
				0.40537893772125244,
				0.40537893772125244
			],
			"translation":[
				1.60993230342865,
				1.1692641973495483,
				1.8742913007736206
			]
		},
		{
			"mesh":1,
			"name":"Cone.001",
			"rotation":[
				-0.07005742192268372,
				-0.014164445921778679,
				0.06901274621486664,
				0.9950520396232605
			],
			"scale":[
				0.40537893772125244,
				0.40537893772125244,
				0.40537893772125244
			],
			"translation":[
				-1.8680726289749146,
				1.1848543882369995,
				-1.6531692743301392
			]
		},
		{
			"mesh":2,
			"name":"Cone.002",
			"rotation":[
				0.3144274353981018,
				0.063571996986866,
				-0.3097389042377472,
				0.8950730562210083
			],
			"scale":[
				0.40537893772125244,
				0.40537893772125244,
				0.40537893772125244
			],
			"translation":[
				-1.637712836265564,
				-1.060132384300232,
				-1.8800932168960571
			]
		},
		{
			"mesh":3,
			"name":"Cone.003",
			"rotation":[
				-0.31323885917663574,
				-0.06333165615797043,
				0.30856800079345703,
				0.8959108591079712
			],
			"scale":[
				0.40537893772125244,
				0.40537893772125244,
				0.40537893772125244
			],
			"translation":[
				1.8276358842849731,
				-1.060132384300232,
				1.637719750404358
			]
		},
		{
			"mesh":4,
			"name":"Icosphere",
			"scale":[
				0.6248525977134705,
				0.6248525977134705,
				0.6248525977134705
			]
		},
		{
			"mesh":5,
			"name":"Torus",
			"rotation":[
				0.6946583986282349,
				0,
				0,
				0.7193397879600525
			],
			"scale":[
				1.2200000286102295,
				1,
				1.2200000286102295
			]
		}
	],
	"meshes":[
		{
			"name":"Cone",
			"primitives":[
				{
					"attributes":{
						"POSITION":0,
						"NORMAL":1,
						"TEXCOORD_0":2
					},
					"indices":3
				}
			]
		},
		{
			"name":"Cone.001",
			"primitives":[
				{
					"attributes":{
						"POSITION":4,
						"NORMAL":5,
						"TEXCOORD_0":6
					},
					"indices":3
				}
			]
		},
		{
			"name":"Cone.002",
			"primitives":[
				{
					"attributes":{
						"POSITION":7,
						"NORMAL":8,
						"TEXCOORD_0":9
					},
					"indices":3
				}
			]
		},
		{
			"name":"Cone.003",
			"primitives":[
				{
					"attributes":{
						"POSITION":10,
						"NORMAL":11,
						"TEXCOORD_0":12
					},
					"indices":3
				}
			]
		},
		{
			"name":"Icosphere",
			"primitives":[
				{
					"attributes":{
						"POSITION":13,
						"NORMAL":14,
						"TEXCOORD_0":15
					},
					"indices":16
				}
			]
		},
		{
			"name":"Torus",
			"primitives":[
				{
					"attributes":{
						"POSITION":17,
						"NORMAL":18,
						"TEXCOORD_0":19
					},
					"indices":20
				}
			]
		}
	],
	"accessors":[
		{
			"bufferView":0,
			"componentType":5126,
			"count":128,
			"max":[
				1,
				1,
				1
			],
			"min":[
				-1,
				-1,
				-1
			],
			"type":"VEC3"
		},
		{
			"bufferView":1,
			"componentType":5126,
			"count":128,
			"type":"VEC3"
		},
		{
			"bufferView":2,
			"componentType":5126,
			"count":128,
			"type":"VEC2"
		},
		{
			"bufferView":3,
			"componentType":5123,
			"count":186,
			"type":"SCALAR"
		},
		{
			"bufferView":4,
			"componentType":5126,
			"count":128,
			"max":[
				1,
				1,
				1
			],
			"min":[
				-1,
				-1,
				-1
			],
			"type":"VEC3"
		},
		{
			"bufferView":5,
			"componentType":5126,
			"count":128,
			"type":"VEC3"
		},
		{
			"bufferView":6,
			"componentType":5126,
			"count":128,
			"type":"VEC2"
		},
		{
			"bufferView":7,
			"componentType":5126,
			"count":128,
			"max":[
				1,
				1,
				1
			],
			"min":[
				-1,
				-1,
				-1
			],
			"type":"VEC3"
		},
		{
			"bufferView":8,
			"componentType":5126,
			"count":128,
			"type":"VEC3"
		},
		{
			"bufferView":9,
			"componentType":5126,
			"count":128,
			"type":"VEC2"
		},
		{
			"bufferView":10,
			"componentType":5126,
			"count":128,
			"max":[
				1,
				1,
				1
			],
			"min":[
				-1,
				-1,
				-1
			],
			"type":"VEC3"
		},
		{
			"bufferView":11,
			"componentType":5126,
			"count":128,
			"type":"VEC3"
		},
		{
			"bufferView":12,
			"componentType":5126,
			"count":128,
			"type":"VEC2"
		},
		{
			"bufferView":13,
			"componentType":5126,
			"count":240,
			"max":[
				0.9510578513145447,
				1,
				0.9999999403953552
			],
			"min":[
				-0.9510578513145447,
				-1,
				-0.9999999403953552
			],
			"type":"VEC3"
		},
		{
			"bufferView":14,
			"componentType":5126,
			"count":240,
			"type":"VEC3"
		},
		{
			"bufferView":15,
			"componentType":5126,
			"count":240,
			"type":"VEC2"
		},
		{
			"bufferView":16,
			"componentType":5123,
			"count":240,
			"type":"SCALAR"
		},
		{
			"bufferView":17,
			"componentType":5126,
			"count":2304,
			"max":[
				1.25,
				0.25,
				1.25
			],
			"min":[
				-1.25,
				-0.25,
				-1.25
			],
			"type":"VEC3"
		},
		{
			"bufferView":18,
			"componentType":5126,
			"count":2304,
			"type":"VEC3"
		},
		{
			"bufferView":19,
			"componentType":5126,
			"count":2304,
			"type":"VEC2"
		},
		{
			"bufferView":20,
			"componentType":5123,
			"count":3456,
			"type":"SCALAR"
		}
	],
	"bufferViews":[
		{
			"buffer":0,
			"byteLength":1536,
			"byteOffset":0,
			"target":34962
		},
		{
			"buffer":0,
			"byteLength":1536,
			"byteOffset":1536,
			"target":34962
		},
		{
			"buffer":0,
			"byteLength":1024,
			"byteOffset":3072,
			"target":34962
		},
		{
			"buffer":0,
			"byteLength":372,
			"byteOffset":4096,
			"target":34963
		},
		{
			"buffer":0,
			"byteLength":1536,
			"byteOffset":4468,
			"target":34962
		},
		{
			"buffer":0,
			"byteLength":1536,
			"byteOffset":6004,
			"target":34962
		},
		{
			"buffer":0,
			"byteLength":1024,
			"byteOffset":7540,
			"target":34962
		},
		{
			"buffer":0,
			"byteLength":1536,
			"byteOffset":8564,
			"target":34962
		},
		{
			"buffer":0,
			"byteLength":1536,
			"byteOffset":10100,
			"target":34962
		},
		{
			"buffer":0,
			"byteLength":1024,
			"byteOffset":11636,
			"target":34962
		},
		{
			"buffer":0,
			"byteLength":1536,
			"byteOffset":12660,
			"target":34962
		},
		{
			"buffer":0,
			"byteLength":1536,
			"byteOffset":14196,
			"target":34962
		},
		{
			"buffer":0,
			"byteLength":1024,
			"byteOffset":15732,
			"target":34962
		},
		{
			"buffer":0,
			"byteLength":2880,
			"byteOffset":16756,
			"target":34962
		},
		{
			"buffer":0,
			"byteLength":2880,
			"byteOffset":19636,
			"target":34962
		},
		{
			"buffer":0,
			"byteLength":1920,
			"byteOffset":22516,
			"target":34962
		},
		{
			"buffer":0,
			"byteLength":480,
			"byteOffset":24436,
			"target":34963
		},
		{
			"buffer":0,
			"byteLength":27648,
			"byteOffset":24916,
			"target":34962
		},
		{
			"buffer":0,
			"byteLength":27648,
			"byteOffset":52564,
			"target":34962
		},
		{
			"buffer":0,
			"byteLength":18432,
			"byteOffset":80212,
			"target":34962
		},
		{
			"buffer":0,
			"byteLength":6912,
			"byteOffset":98644,
			"target":34963
		}
	],
	"buffers":[
		{
			"byteLength":105556,
			"uri":"random2.bin"
		}
	]
}
