{
	"asset":{
		"generator":"Khronos glTF Blender I/O v4.2.70",
		"version":"2.0"
	},
	"extensionsUsed":[
		"EXT_texture_webp"
	],
	"extensionsRequired":[
		"EXT_texture_webp"
	],
	"scene":0,
	"scenes":[
		{
			"name":"Scene",
			"nodes":[
				0,
				1
			]
		}
	],
	"nodes":[
		{
			"mesh":0,
			"name":"build_scene:build_scene:Snow_Scene_Snow_Globe:___Default1_0",
			"scale":[
				0.04799488186836243,
				0.04799488186836243,
				0.04799488186836243
			]
		},
		{
			"mesh":1,
			"name":"build_scene:build_scene:Snow_Scene_blinn1_0",
			"scale":[
				0.04799488186836243,
				0.04799488186836243,
				0.04799488186836243
			]
		}
	],
	"materials":[
		{
			"alphaMode":"BLEND",
			"doubleSided":true,
			"name":"PaletteMaterial001",
			"pbrMetallicRoughness":{
				"baseColorTexture":{
					"index":0
				},
				"metallicFactor":0,
				"roughnessFactor":0.6000000238418579
			}
		},
		{
			"doubleSided":true,
			"name":"PaletteMaterial002",
			"pbrMetallicRoughness":{
				"baseColorTexture":{
					"index":1
				},
				"metallicFactor":0,
				"roughnessFactor":0.6000000238418579
			}
		}
	],
	"meshes":[
		{
			"name":"build_scene:build_scene:Snow_Scene_Snow_Globe:___Default1_0",
			"primitives":[
				{
					"attributes":{
						"POSITION":0,
						"NORMAL":1,
						"TEXCOORD_0":2
					},
					"indices":3,
					"material":0
				}
			]
		},
		{
			"name":"build_scene:build_scene:Snow_Scene_blinn1_0",
			"primitives":[
				{
					"attributes":{
						"POSITION":4,
						"NORMAL":5,
						"TEXCOORD_0":6
					},
					"indices":7,
					"material":1
				}
			]
		}
	],
	"textures":[
		{
			"extensions":{
				"EXT_texture_webp":{
					"source":0
				}
			},
			"sampler":0
		},
		{
			"extensions":{
				"EXT_texture_webp":{
					"source":0
				}
			},
			"sampler":0
		}
	],
	"images":[
		{
			"mimeType":"image/webp",
			"name":"PaletteBaseColor",
			"uri":"PaletteBaseColor.webp"
		}
	],
	"accessors":[
		{
			"bufferView":0,
			"componentType":5126,
			"count":3490,
			"max":[
				12.42283821105957,
				26.943904876708984,
				12.42283821105957
			],
			"min":[
				-12.42283821105957,
				5.741291046142578,
				-12.42283821105957
			],
			"type":"VEC3"
		},
		{
			"bufferView":1,
			"componentType":5126,
			"count":3490,
			"type":"VEC3"
		},
		{
			"bufferView":2,
			"componentType":5126,
			"count":3490,
			"type":"VEC2"
		},
		{
			"bufferView":3,
			"componentType":5123,
			"count":18864,
			"type":"SCALAR"
		},
		{
			"bufferView":4,
			"componentType":5126,
			"count":62400,
			"max":[
				11.010919570922852,
				24.89604949951172,
				11.406739234924316
			],
			"min":[
				-11.110790252685547,
				-1.5932917377957964e-16,
				-11.007006645202637
			],
			"type":"VEC3"
		},
		{
			"bufferView":5,
			"componentType":5126,
			"count":62400,
			"type":"VEC3"
		},
		{
			"bufferView":6,
			"componentType":5126,
			"count":62400,
			"type":"VEC2"
		},
		{
			"bufferView":7,
			"componentType":5123,
			"count":239952,
			"type":"SCALAR"
		}
	],
	"bufferViews":[
		{
			"buffer":0,
			"byteLength":41880,
			"byteOffset":0,
			"target":34962
		},
		{
			"buffer":0,
			"byteLength":41880,
			"byteOffset":41880,
			"target":34962
		},
		{
			"buffer":0,
			"byteLength":27920,
			"byteOffset":83760,
			"target":34962
		},
		{
			"buffer":0,
			"byteLength":37728,
			"byteOffset":111680,
			"target":34963
		},
		{
			"buffer":0,
			"byteLength":748800,
			"byteOffset":149408,
			"target":34962
		},
		{
			"buffer":0,
			"byteLength":748800,
			"byteOffset":898208,
			"target":34962
		},
		{
			"buffer":0,
			"byteLength":499200,
			"byteOffset":1647008,
			"target":34962
		},
		{
			"buffer":0,
			"byteLength":479904,
			"byteOffset":2146208,
			"target":34963
		}
	],
	"samplers":[
		{
			"magFilter":9728,
			"minFilter":9984
		}
	],
	"buffers":[
		{
			"byteLength":2626112,
			"uri":"resized-snowglobe.bin"
		}
	]
}
